<svg xmlns="http://www.w3.org/2000/svg" xml:space="preserve" width="1500" height="1500" data-id="lg_tXm6mOaypUokRuAn2Y" data-version="1"><path fill="#fff" stroke="transparent" d="M0 0h1500v1500H0z"/><g data-padding="20"><g transform="translate(-571.429 -577.296)scale(1.72194)"><path fill="#1b4571" stroke="transparent" d="M523.507 897.403q-7.73 0-13.73-2.29-6.01-2.29-10.15-6.44-4.13-4.16-6.3-9.83-2.16-5.67-2.16-12.43 0-9.16 3.76-16.2 3.76-7.03 10.77-11 7.02-3.97 16.84-3.97 3.15 0 6.16.4 3 .4 5.69 1.05t5 1.47 4.07 1.7l-1.05 12.81q-3.53-2.01-6.82-3.27-3.3-1.26-6.31-1.83-3-.57-5.64-.57-3.87 0-7.16 1.24-3.3 1.24-5.78 3.72t-3.84 6.11q-1.37 3.63-1.37 8.38 0 4.07 1.16 7.68 1.15 3.62 3.5 6.37 2.36 2.75 5.99 4.3 3.63 1.56 8.55 1.56 2.6 0 4.95-.26 2.35-.25 4.54-.79 2.18-.55 4.3-1.37t4.27-1.99l1.63 12.3q-1.42.59-3.67 1.16-2.25.56-5.04 1.03-2.79.46-5.9.71t-6.26.25m20.87-3.15-12.97.25v-29.14h12.97v20.89Zm50.92 2.11h-40.15v-59.89h39.77v11.3h-32.84l6.59-9.12v55.53l-5.71-9.12h32.34Zm-18.82-24.95h-10.96v-10.5h28.06v10.5h-7.82Zm56.91 24.95h-13.77v-57.71l5.2 9.87h-23.31v-12.05h49.94v12.05h-23.31l5.25-9.87v48.35Zm37.3 0h-12.9q.63-4.7 1.22-9.41l1.26-10.2 2.48-20.08q.71-5.42 1.3-10.25l1.22-9.95h13.99l3.84 9.81 3.63 9.3 7.14 18.31h.93l6.93-18.27 3.5-9.24q1.75-4.58 3.68-9.91h13.82l1.23 9.87 1.33 10.37 2.56 20.16q.67 5.46 1.28 10.08t1.2 9.41h-13.15q-.75-6.3-1.47-11.97-.71-5.67-1.3-10.62l-1.76-14.2h-.93l-5.21 15.25q-1.89 5.62-3.8 11.15-1.91 5.52-3.55 10.39h-9.15l-2.54-6.76-2.8-7.37q-1.42-3.76-2.81-7.37l-5.8-15.29h-.92l-1.72 14.11-1.28 10.69q-.7 5.69-1.45 11.99m79.46 0h-13.86q1.6-4.83 3.34-10.16l3.3-10.12 6.76-20.54q1.81-5.59 3.28-10.06t2.94-9.01h17.8l2.96 9.16q1.45 4.45 3.26 9.91l6.68 20.58q1.64 4.95 3.34 10.2l3.25 10.04h-14.28q-1.34-4.79-2.77-9.81l-2.73-9.51-8.23-28.85h-1.01l-8.32 28.56q-1.34 4.66-2.83 9.76Zm29.99-12.51h-29.4l1.47-10.34h26.75Zm34.2 12.51h-13.57v-59.89h22.98q7.3 0 12.36 1.62 5.07 1.61 7.69 5.39 2.63 3.78 2.63 10.29 0 5.17-2.04 9.29-2.04 4.11-6.53 6.51-4.5 2.39-11.76 2.39l5.33-5.04 8.15 12.01 4.03 5.94 4.18 6.18 3.59 5.31h-15.66q-2.27-3.53-4.37-6.76l-4.08-6.3-9.7-15.29 8.19 6.26h-13.9v-9.87h10q3.36 0 5.64-.82 2.29-.82 3.47-2.79 1.18-1.98 1.18-5.42 0-2.56-.76-4.14-.76-1.57-2.04-2.45-1.28-.89-2.85-1.18-1.58-.29-3.17-.29h-18.82l9.83-8.66v48.35Zm58.06 0h-13.56v-59.89h22.97q7.31 0 12.37 1.62 5.06 1.61 7.69 5.39 2.62 3.78 2.62 10.29 0 5.17-2.04 9.29-2.03 4.11-6.53 6.51-4.49 2.39-11.76 2.39l5.34-5.04 8.15 12.01 4.03 5.94 4.18 6.18 3.59 5.31h-15.67q-2.27-3.53-4.37-6.76t-4.07-6.3l-9.7-15.29 8.19 6.26h-13.9v-9.87h9.99q3.36 0 5.65-.82t3.47-2.79q1.17-1.98 1.17-5.42 0-2.56-.75-4.14-.76-1.57-2.04-2.45-1.28-.89-2.86-1.18-1.57-.29-3.17-.29h-18.81l9.82-8.66v48.35Zm58.94 0h-14.11v-59.89h14.11v50.53Zm52.16 0h-40.15v-59.89h39.78v11.3h-32.85l6.6-9.12v55.53l-5.72-9.12h32.34Zm-18.81-24.95h-10.96v-10.5h28.05v10.5h-7.81Zm28.81 24.95v-59.89h23.81q6.85 0 12.18 1.97 5.34 1.98 9.01 5.8 3.68 3.82 5.61 9.34 1.93 5.53 1.93 12.63 0 6.34-1.7 11.82t-5.42 9.6q-3.71 4.11-9.8 6.42t-14.87 2.31h-14.32Zm13.82-11.04h6.89q6.46 0 10.27-2.52 3.8-2.52 5.48-6.89t1.68-9.87q0-4.16-.99-7.56t-3.02-5.86q-2.04-2.46-5.19-3.78t-7.52-1.32h-7.6v32.29Z"/><rect width="560" height="94.92" x="86.407" y="323.183" fill="none" rx="0" ry="0" transform="translate(401 494.74)"/><path fill="#1b4571" stroke="transparent" d="M561.807 945.313h-2.41l-4.35-7.38-1.34-2.27-1.49-2.51h2.9l1.32 2.31 1.03 1.82 1.08 1.9 1.93 3.4h.25l1.88-3.27 1.14-2.01 1.07-1.86 1.32-2.29h2.84l-1.42 2.41-1.39 2.36Zm.07 7.8h-2.53v-9.91h2.53v6.7Zm19.36.31q-2.53 0-4.43-.82-1.91-.82-3.17-2.25-1.27-1.44-1.9-3.3t-.63-3.94q0-2.91 1.18-5.25 1.18-2.33 3.42-3.71 2.24-1.37 5.45-1.37 2.44 0 4.31.8 1.86.8 3.14 2.21 1.27 1.42 1.92 3.29.64 1.88.64 4.02 0 2.95-1.18 5.29-1.17 2.33-3.4 3.68-2.22 1.35-5.35 1.35m-.07-2.19q1.92 0 3.31-.66 1.38-.67 2.29-1.81.9-1.15 1.33-2.61.44-1.47.44-3.05 0-1.71-.47-3.18-.47-1.48-1.4-2.59-.93-1.12-2.3-1.74-1.38-.62-3.2-.62-1.87 0-3.26.65-1.4.66-2.32 1.8-.93 1.14-1.39 2.61-.46 1.46-.46 3.07 0 1.62.45 3.08t1.36 2.6q.92 1.14 2.32 1.8 1.4.65 3.3.65m21.65 2.19q-2.79 0-4.53-.96t-2.56-2.7q-.82-1.75-.82-4.07v-12.54h2.52v12.29q0 1.8.53 3.11.53 1.3 1.72 1.99 1.18.69 3.14.69 1.97 0 3.14-.69t1.69-1.99q.52-1.31.52-3.14v-12.26h2.52v12.54q0 2.32-.83 4.07-.83 1.74-2.56 2.7-1.74.96-4.48.96m15.29-.31h-2.48v-19.96h6.75q2.28 0 3.8.54 1.52.53 2.28 1.72t.76 3.14q0 1.64-.63 3-.64 1.35-2.13 2.17-1.48.82-4.01.84l.79-1.11 3.15 3.93q.75.91 1.57 1.95l1.61 2.02 1.4 1.76h-2.97l-1.91-2.44q-.91-1.17-1.81-2.29l-3.58-4.62 1.55 1.24h-4.58v-2.08h3.8q1.75 0 2.88-.41 1.13-.4 1.69-1.31.56-.9.56-2.4 0-1.24-.39-1.96-.4-.73-1.05-1.06-.66-.34-1.41-.44-.76-.09-1.46-.09h-5.88l1.7-1.74v16.39Zm24.12 0h-2.49v-19.96h7.06q2.28 0 3.77.6t2.23 1.87q.74 1.26.74 3.24 0 1.83-.67 3.25-.68 1.42-2.27 2.24-1.59.81-4.34.81h-4.36v-2.1h3.89q1.79 0 2.93-.42t1.69-1.35q.54-.92.54-2.42 0-1.23-.39-1.96-.4-.73-1.05-1.08-.66-.36-1.41-.47-.76-.11-1.47-.11h-5.63l1.23-1.74v16.39Zm27.51 0h-12.43v-19.96h12.4v2.17h-11.32l1.4-1.81v19.22l-1.26-1.79h11.21Zm-6.63-9.06h-3.87v-2.11h9.91v2.11h-2.76Zm13.31 9.06h-2.48v-19.96h6.75q2.28 0 3.8.54 1.52.53 2.28 1.72t.76 3.14q0 1.64-.63 3-.64 1.35-2.13 2.17-1.48.82-4.01.84l.79-1.11 3.15 3.93q.75.91 1.57 1.95l1.61 2.02 1.4 1.76h-2.97l-1.91-2.44q-.91-1.17-1.81-2.29l-3.58-4.62 1.55 1.24h-4.58v-2.08h3.8q1.75 0 2.88-.41 1.13-.4 1.69-1.31.56-.9.56-2.4 0-1.24-.39-1.96-.4-.73-1.05-1.06-.66-.34-1.41-.44-.76-.09-1.46-.09h-5.88l1.7-1.74v16.39Zm18.77 0h-2.49v-19.96h12.16v2.18h-10.75l1.08-1.82v16.39Zm3.05-8.93h-3.65v-2.12h9.71v2.12h-2.77Zm22.95 8.93h-12.43v-19.96h12.4v2.17h-11.33l1.4-1.81v19.22l-1.26-1.79h11.22Zm-6.64-9.06h-3.86v-2.11h9.91v2.11h-2.76Zm19.87 9.37q-2.37 0-4.26-.77-1.9-.77-3.23-2.16-1.33-1.4-2.04-3.28t-.71-4.11q0-3.02 1.25-5.35 1.25-2.34 3.46-3.65 2.21-1.32 5.15-1.32.99 0 1.93.14t1.78.38 1.55.52q.72.28 1.24.57l-.23 2.44q-1.09-.65-2.12-1.04-1.03-.4-2.01-.59-.99-.18-1.93-.18-2.16 0-3.84.98t-2.63 2.8q-.96 1.81-.96 4.31 0 1.67.49 3.14.5 1.47 1.49 2.59.98 1.12 2.45 1.76 1.46.63 3.41.63.71 0 1.42-.09.72-.09 1.42-.28.7-.2 1.38-.53t1.33-.78l.2 2.41q-.59.38-1.29.66-.71.28-1.49.46-.78.17-1.59.25-.81.09-1.62.09m17.79-.31h-2.53v-19.6l1.01 1.89h-7.86v-2.25h16.21v2.25h-7.85l1.02-1.89v16.39Zm17.36 0h-2.42l.4-3.21.43-3.44.82-6.58.42-3.42.42-3.31h2.55l1.68 4.11 1.61 3.94 3.16 7.75h.2l3.14-7.74q.79-1.99 1.59-3.95t1.65-4.11h2.55l.4 3.29.43 3.43.81 6.65.42 3.38q.2 1.56.39 3.21h-2.42l-.62-5.05-.54-4.47-.73-5.96h-.18l-2.54 6.42-1.84 4.69-1.73 4.37h-1.72l-1.12-2.8-1.26-3.12-1.27-3.1-2.62-6.46h-.18l-.73 5.95-.54 4.48Zm25.9 0h-2.56l1.23-3.39q.63-1.78 1.22-3.37l2.48-6.86 1.2-3.34 1.09-3h3.34l1.07 3.02q.54 1.48 1.19 3.33l2.47 6.88 1.21 3.39 1.2 3.34h-2.64l-1.23-3.6-1.2-3.5-3.64-10.58h-.24l-3.67 10.48-1.24 3.58q-.65 1.87-1.28 3.62m11.65-5.01h-10.51l.22-1.99h10.11Zm14.52 5.01h-2.53v-19.6l1.01 1.89h-7.86v-2.25h16.21v2.25h-7.85l1.02-1.89v16.39Zm19.35.31q-2.37 0-4.27-.77-1.89-.77-3.22-2.16-1.33-1.4-2.04-3.28t-.71-4.11q0-3.02 1.25-5.35 1.24-2.34 3.46-3.65 2.21-1.32 5.15-1.32.99 0 1.93.14t1.78.38 1.55.52q.72.28 1.23.57l-.22 2.44q-1.09-.65-2.12-1.04-1.03-.4-2.02-.59-.98-.18-1.92-.18-2.16 0-3.84.98t-2.64 2.8q-.96 1.81-.96 4.31 0 1.67.5 3.14t1.49 2.59q.98 1.12 2.45 1.76 1.46.63 3.4.63.72 0 1.43-.09.72-.09 1.42-.28.7-.2 1.38-.53.67-.33 1.33-.78l.2 2.41q-.59.38-1.3.66-.7.28-1.48.46-.78.17-1.59.25-.81.09-1.62.09m25.93-.31h-2.54v-19.96h2.54v16.75Zm-13.27 0h-2.54v-19.96h2.54v16.75Zm11.7-9.02h-12.59v-2.18h12.59Zm12.92 9.02h-2.56l1.22-3.39 1.23-3.37 2.47-6.86 1.21-3.34 1.09-3h3.33l1.08 3.02 1.19 3.33 2.46 6.88 1.22 3.39 1.19 3.34h-2.63l-1.24-3.6-1.2-3.5-3.64-10.58h-.23l-3.67 10.48-1.25 3.58q-.64 1.87-1.27 3.62m11.65-5.01h-10.52l.23-1.99h10.1Zm13.92 5.01h-3.14l-.91-3.18-.91-3.13-1.79-6.25-1.05-3.66-1.08-3.74h2.8l1.22 4.5 1.2 4.51 2.14 7.95h.24l2.09-8.05.76-2.91.8-3.07.76-2.93h2.94l1.18 4.46 1.19 4.48 2.13 8.02h.23l2.17-8.06 1.19-4.45 1.19-4.45h2.82l-1.09 3.73-1.05 3.62-1.82 6.3-.92 3.18q-.48 1.69-.92 3.13h-3.25l-1.18-4.34-1.17-4.28-2.13-7.79h-.25l-2.08 7.79-1.15 4.31Zm22.31 0h-2.56l1.22-3.39 1.23-3.37 2.47-6.86 1.21-3.34 1.09-3h3.33l1.08 3.02 1.19 3.33 2.46 6.88 1.22 3.39 1.19 3.34h-2.63l-1.24-3.6-1.2-3.5-3.64-10.58h-.23l-3.67 10.48-1.25 3.58q-.64 1.87-1.27 3.62m11.65-5.01h-10.52l.23-1.99h10.1Zm9.48 5.01h-2.58v-19.96h2.58v16.75Zm12.87 0h-2.53v-19.6l1.01 1.89h-7.86v-2.25h16.22v2.25h-7.86l1.02-1.89v16.39Zm16.09.31q-1.25 0-2.51-.23-1.27-.23-2.34-.58-1.07-.34-1.73-.69l.24-2.39q.94.51 1.95.9 1.02.38 2.07.59 1.06.21 2.17.21 1.24 0 2.24-.34t1.59-1.09q.58-.75.58-1.97 0-1.06-.61-1.75-.6-.7-1.74-1.2-1.14-.51-2.76-1.01-1.91-.6-3.25-1.3-1.35-.7-2.05-1.73-.71-1.03-.71-2.63 0-1.55.74-2.78.73-1.23 2.19-1.94 1.45-.71 3.61-.71.89 0 1.77.13.87.12 1.67.34t1.46.48q.66.27 1.12.55l-.25 2.41q-.86-.58-1.81-.96-.95-.39-1.89-.57-.94-.19-1.74-.19-1.13 0-2.08.33-.95.34-1.53 1.03-.59.69-.59 1.79 0 .95.49 1.58t1.55 1.13q1.06.49 2.72 1.02 2.41.76 3.79 1.54 1.38.77 1.96 1.8.58 1.02.58 2.5 0 1.64-.72 2.93t-2.25 2.04q-1.52.76-3.93.76m12.32-7.27-1.9.03q-.05-3.46-.18-6.84l-.27-6.74 2.8-.08-.27 6.78q-.12 3.41-.18 6.85m-.98 7.27q-.57 0-.99-.24-.41-.24-.63-.64-.23-.41-.23-.96 0-.82.51-1.31.5-.49 1.34-.49.59 0 .99.22.41.23.64.63.23.41.23.95 0 .82-.49 1.33-.5.51-1.37.51"/><rect width="439.8" height="31.64" x="146.507" y="354.823" fill="none" rx="0" ry="0" transform="translate(401 572.48)"/><path fill="#1b4571" d="M843.954 608.37c1.165-1.072.839-2.004-.745-2.144l-12.303-.932a4.66 4.66 0 0 0-4.054 2.33l-13.234 27.028q-.932 2.143.885.606Zm-66.967-7.084c-1.585-.093-2.05.792-1.072 2.004l24.977 30.29c.979 1.212 1.445.979.979-.466l-8.295-27.913a4.66 4.66 0 0 0-3.635-2.936Zm45.528 6.058c.652-1.398-.047-2.656-1.631-2.796l-21.017-1.538c-1.584-.14-2.47.98-2.05 2.517l8.854 29.684c.466 1.491 1.398 1.584 2.097.186Zm-16.45-21.343c1.118-1.165.746-2.143-.839-2.283l-13.56-1.025c-1.585-.093-2.19.932-1.352 2.237l5.033 8.108c.839 1.351 2.377 1.491 3.495.373Zm25.723 1.911c1.072-1.118.7-2.144-.885-2.283l-14.633-1.072c-1.537-.093-2.097.839-1.211 2.143l5.825 8.295c.885 1.258 2.516 1.398 3.588.28Zm-55.78 7.037c-1.072 1.118-.699 2.143.885 2.283l14.307 1.072c1.537.093 2.143-.932 1.304-2.237l-5.359-8.668c-.838-1.35-2.376-1.49-3.495-.372Zm67.85 7.27c1.537.14 2.05-.84 1.165-2.098l-6.618-9.32a2.33 2.33 0 0 0-3.634-.28l-8.062 8.249c-1.119 1.118-.746 2.143.839 2.237Zm-42.773-5.406c-1.118 1.165-.745 2.143.793 2.283l15.051 1.118c1.538.094 2.097-.838 1.212-2.097l-6.058-8.62a2.33 2.33 0 0 0-3.588-.327Zm-42.875 47.671-13.094-4.893a62.9 62.9 0 0 1 29.497-33.552l6.524 12.396a48.93 48.93 0 0 0-22.927 26.096"/><path fill="#1b4571" d="m804.015 724.593-4.754-.14a62.91 62.91 0 0 1-57.271-51.772l13.794-2.423a48.93 48.93 0 0 0 44.503 40.215 48.977 48.977 0 0 0 34.996-86.303l8.994-10.718a62.957 62.957 0 0 1-40.262 111.141"/><path fill="#1b4571" d="M726.332 774.032c-35.742 0-64.774-29.078-64.774-64.774s29.032-64.774 64.774-64.774c30.756 0 57.412 21.81 63.47 51.866l-13.7 2.796a50.84 50.84 0 1 0-1.073 24.652l13.375 4.007a65.24 65.24 0 0 1-62.072 46.227"/></g><path fill="transparent" stroke="transparent" stroke-width="1.786" d="M250 414.286h1000v671.428H250z"/></g></svg>